<svg xmlns="http://www.w3.org/2000/svg" width="500" height="318.7" viewBox="0 0 500 318.7"><path d="M207.1 148.3s39.4-10.8 37.4-65-41.4-76.9-78.8-76.9H6.1v304.4h157.6s90.7-2.9 90.7-92.6c0 0 3.9-52.2-47.3-69.9zM77 59.6h68s40.4 0 40.4 33-35.5 33-35.5 33H77zm74.9 198H77v-79.8h78.9s34.4 0 34.4 39.9-38.4 39.9-38.4 39.9zM386.4 77.4S277 77.4 277 188.7s83.8 122.1 109.4 122.1S485.9 297 488.8 237h-58.1s-5.9 29.5-47.8 25.6-47.8-41.4-48.7-52.2h158.6s19.7-126.1-106.4-133zM338.1 170s2-44.4 48.3-44.4 48.2 44.4 48.2 44.4zM324.3 19.2h121.2v31.52H324.3z"/></svg>