<svg id="Layer_3" data-name="Layer 3" xmlns="http://www.w3.org/2000/svg" width="607.2" height="518.8" viewBox="0 0 607.2 518.8"><title>github</title><path d="M201.4,504.3S33.3,437.7,44.2,250.7,215.9,7.2,303.6,7.2,563,76.8,563,255.8,418.8,510.1,382.6,511.6c0,0-15.9,5.3-15.4-24.2s10-90-16-106.5c0,0,109.5-6,115.5-98.5,0,0,14-62.5-25-99.5,0,0,16.5-39-1.5-70,0,0-40-4.5-71.5,28.5,0,0-48.5-23-129.5-.5,0,0-38.5-31-72-27.5,0,0-14.5,31.5-3.5,66,0,0,2.5,5.5-2,6.5s-26,40.5-24,73.5,9.5,116,117,121c0,0-16,16-16,34,0,0-47.5,26.5-75-22.5,0,0-16.5-28-44.5-25,0,0-13.5,4,0,14s25,20,34,43,36,28.5,36,28.5,27,5,50.5-.5l.5,50S239,524.8,201.4,504.3Z"/></svg>