<svg id="Layer_1" data-name="Layer 1" xmlns="http://www.w3.org/2000/svg" width="255" height="159" viewBox="0 0 255 159"><title>logo</title><line x1="32.4" y1="15.7" x2="13.5" y2="102.9" fill="none" stroke="#231f20" stroke-miterlimit="10"/><line x1="32.4" y1="15.7" x2="51.3" y2="102.9" fill="none" stroke="#231f20" stroke-miterlimit="10"/><line x1="70.8" y1="15.7" x2="51.9" y2="102.9" fill="none" stroke="#231f20" stroke-miterlimit="10"/><line x1="70.8" y1="15.7" x2="89.7" y2="102.9" fill="none" stroke="#231f20" stroke-miterlimit="10"/><line x1="122" y1="15.7" x2="103.1" y2="102.9" fill="none" stroke="#231f20" stroke-miterlimit="10"/><line x1="122" y1="15.7" x2="140.9" y2="102.9" fill="none" stroke="#231f20" stroke-miterlimit="10"/><line x1="224.6" y1="15.7" x2="205.7" y2="102.9" fill="none" stroke="#231f20" stroke-miterlimit="10"/><line x1="224.6" y1="15.7" x2="243.5" y2="102.9" fill="none" stroke="#231f20" stroke-miterlimit="10"/><path d="M151.8,81.4S149.7,103,168.9,103s17.6-19.7,17.6-19.7V16h24.8" fill="none" stroke="#231f20" stroke-miterlimit="10"/><path d="M25.5,123.4v1.2c0,3.5-1.1,5.7-3.4,6.8h0c2.9,1.1,4,3.6,4,7.2v2.8c0,5.2-2.8,8-8.1,8H9.6V115.6h8C23.2,115.6,25.5,118.1,25.5,123.4Zm-10.6-3v9H17c2,0,3.2-.9,3.2-3.6v-1.9c0-2.4-.8-3.5-2.7-3.5Zm0,13.8v10.4h3c1.8,0,2.8-.8,2.8-3.3v-3c0-3.1-1-4.1-3.4-4.1Z" fill="#231f20"/><path d="M42.7,129.9H50v4.8H42.7v9.9h9.2v4.8H37.3V115.6H51.9v4.8H42.7Z" fill="#231f20"/><path d="M74.4,149.5a10.4,10.4,0,0,1-.5-4.2V140c0-3.1-1.1-4.3-3.5-4.3H68.6v13.8H63.2V115.6h8c5.5,0,7.9,2.6,7.9,7.8V126c0,3.5-1.1,5.7-3.5,6.8h0c2.7,1.1,3.5,3.6,3.5,7.2v5.2a10,10,0,0,0,.6,4.1Zm-5.8-29v10.4h2.1c2,0,3.2-.9,3.2-3.6v-3.3c0-2.4-.8-3.5-2.7-3.5Z" fill="#231f20"/><path d="M98.8,130.6h7.5v10.7c0,5.4-2.7,8.5-7.9,8.5s-7.9-3.1-7.9-8.5V123.7c0-5.4,2.7-8.5,7.9-8.5s7.9,3.1,7.9,8.5V127h-5v-3.6c0-2.4-1.1-3.3-2.8-3.3s-2.8.9-2.8,3.3v18.3c0,2.4,1.1,3.3,2.8,3.3s2.8-.9,2.8-3.3v-6.2H98.8Z" fill="#231f20"/><path d="M124.9,115.2c5.2,0,7.8,3.1,7.8,8.5v1.1h-5v-1.4c0-2.4-1-3.3-2.7-3.3s-2.7.9-2.7,3.3,1.1,4.3,4.5,7.4,5.9,6.7,5.9,10.6c0,5.4-2.7,8.5-7.9,8.5s-7.9-3.1-7.9-8.5v-2.1h5v2.4c0,2.4,1.1,3.3,2.8,3.3s2.8-.9,2.8-3.3-1.1-4.3-4.5-7.4-5.9-6.7-5.9-10.6C117.1,118.3,119.7,115.2,124.9,115.2Z" fill="#231f20"/><path d="M142.4,115.6h16.5v4.8h-5.6v29h-5.3v-29h-5.6Z" fill="#231f20"/><path d="M180.4,149.5a10.4,10.4,0,0,1-.5-4.2V140c0-3.1-1.1-4.3-3.5-4.3h-1.8v13.8h-5.3V115.6h8c5.5,0,7.9,2.6,7.9,7.8V126c0,3.5-1.1,5.7-3.5,6.8h0c2.7,1.1,3.5,3.6,3.5,7.2v5.2a10,10,0,0,0,.6,4.1Zm-5.8-29v10.4h2.1c2,0,3.2-.9,3.2-3.6v-3.3c0-2.4-.8-3.5-2.7-3.5Z" fill="#231f20"/><path d="M196.3,123.7c0-5.4,2.9-8.5,8.1-8.5s8.1,3.1,8.1,8.5v17.6c0,5.4-2.9,8.5-8.1,8.5s-8.1-3.1-8.1-8.5Zm5.3,18c0,2.4,1.1,3.3,2.8,3.3s2.8-.9,2.8-3.3V123.4c0-2.4-1.1-3.3-2.8-3.3s-2.8.9-2.8,3.3Z" fill="#231f20"/><path d="M235.3,139.6h.1l3.6-24.1h7.4v33.9h-5V125.2h-.1l-3.6,24.3h-5l-3.9-24h-.1v24H224V115.6h7.4Z" fill="#231f20"/></svg>