<svg xmlns="http://www.w3.org/2000/svg" width="375.5" height="220.4" viewBox="0 0 375.5 220.4"><path fill="none" stroke="#231f20" stroke-miterlimit="10" stroke-width="3" d="M49.9 22.7L22.2 150.4M49.9 22.7l27.7 127.7m28.5-127.7L78.4 150.4m27.7-127.7l27.7 127.7m47.3-127.7l-27.7 127.7m27.7-127.7l27.7 127.7M331.5 22.7l-27.7 127.7m27.7-127.7l27.7 127.7"/><path fill="#231f20" d="M43.8 177.9v1.7c0 5-1.5 8.1-4.9 9.7v.2c4.1 1.6 5.7 5.2 5.7 10.3v3.9c0 7.5-4 11.6-11.6 11.6H21v-48.6h11.5c7.9 0 11.3 3.7 11.3 11.2zm-15.2-4.2v12.8h3c2.9 0 4.6-1.3 4.6-5.2v-2.7c0-3.4-1.2-4.9-3.9-4.9zm0 19.7v14.9H33c2.6 0 3.9-1.2 3.9-4.8v-4.2c0-4.5-1.4-5.9-4.9-5.9zm39.8-6.2h10.4v6.9H68.4v14.2h13.1v7H60.7v-48.6h20.8v7H68.4zm45.4 28.1c-.4-1.3-.7-2.1-.7-6v-7.6c0-4.5-1.5-6.2-5-6.2h-2.6v19.8h-7.7v-48.6h11.5c7.9 0 11.3 3.7 11.3 11.2v3.8c0 5-1.6 8.2-5 9.8 3.9 1.6 5.1 5.2 5.1 10.3v7.5a15.6 15.6 0 0 0 .8 5.9zm-8.3-41.6v14.9h2.9c2.9 0 4.6-1.3 4.6-5.2v-4.8c0-3.4-1.2-4.9-3.9-4.9zm43.2 14.5h10.7v15.4c0 7.8-3.9 12.2-11.4 12.2s-11.3-4.4-11.3-12.2v-25.2c0-7.8 3.8-12.2 11.3-12.2s11.4 4.4 11.4 12.2v4.7h-7.2v-5.2c0-3.5-1.5-4.8-4-4.8s-3.9 1.3-3.9 4.8v26.2c0 3.5 1.5 4.7 3.9 4.7s4-1.2 4-4.7v-9h-3.5zm62.5-21.5h23.6v7h-8v41.6h-7.6v-41.6h-8zm54.4 48.6c-.4-1.3-.7-2.1-.7-6v-7.6c0-4.5-1.5-6.2-5-6.2h-2.6v19.8h-7.6v-48.6h11.5c7.9 0 11.3 3.7 11.3 11.2v3.8c0 5-1.6 8.2-5 9.8 3.8 1.6 5 5.2 5 10.3v7.5a13.8 13.8 0 0 0 .9 5.9zm-8.3-41.6v14.9h3c2.8 0 4.6-1.3 4.6-5.2v-4.8c0-3.4-1.2-4.9-3.9-4.9zm31.2 4.7c0-7.8 4.1-12.2 11.6-12.2s11.6 4.4 11.6 12.2v25.2c0 7.8-4.1 12.2-11.6 12.2s-11.6-4.4-11.6-12.2zm7.6 25.7c0 3.5 1.5 4.8 4 4.8s3.9-1.3 3.9-4.8v-26.2c0-3.5-1.5-4.8-3.9-4.8s-4 1.3-4 4.8zm48.1-2.9h.2l5.1-34.5h10.6v48.6h-7.2v-34.9h-.1l-5.2 34.9h-7.2l-5.5-34.4h-.2v34.4h-6.6v-48.6h10.6zm-268-52.5h3.7v2.04h-3.7zM48.5 22.4h2.9v1.02h-2.9zm56.2 0h2.9v1.02h-2.9zm75 0h2.9v1.02h-2.9zm150.4 0h2.9v1.02h-2.9zM20.8 150.1l-.2.6h3.1l-1.2-.8-1.7.2zm114.5 0l.2.6h-3.1l1.1-.8 1.8.2zm75 0l.2.6h-3.1l1.1-.8 1.8.2zm92.1 0l-.2.6h3.1l-1.2-.8-1.7.2zm58.3 0l.2.6h-3.1l1.1-.8 1.8.2zm-208.7 0l-.2.6h3.1l-1.2-.8-1.7.2z"/><path fill="none" stroke="#231f20" stroke-miterlimit="10" stroke-width="3" d="M224.4 118.9s-3 31.7 25.1 31.7 25.8-28.9 25.8-28.9V23.1H240"/><path fill="#231f20" d="M187.9 165.7c7.4 0 11.2 4.5 11.2 12.2v1.6h-7.2v-2c0-3.5-1.4-4.8-3.8-4.8s-3.8 1.3-3.8 4.8 1.5 6.1 6.5 10.5 8.4 9.6 8.4 15.2c0 7.7-3.9 12.2-11.4 12.2s-11.4-4.5-11.4-12.2v-3h7.2v3.5c0 3.4 1.6 4.7 4 4.7s3.9-1.3 3.9-4.7-1.5-6.2-6.5-10.6-8.4-9.6-8.4-15.2c0-7.7 3.9-12.2 11.3-12.2z"/></svg>