<svg id="Layer_2" data-name="Layer 2" xmlns="http://www.w3.org/2000/svg" width="607.2" height="518.8" viewBox="0 0 607.2 518.8"><title>twitter</title><path d="M0,453.6s118,15.9,183.6-52.2c0,0-82.2,4.3-119.9-87,0,0,37.7,11.6,56.5,0,0,0-104.3-26.1-97.1-126.1,0,0,20.3,20.3,53.6,14.5,0,0-91.3-68.1-36.2-165.2,0,0,93.7,131.9,260.6,131.9,0,0-33.1-81.2,55.3-139.1S508.7,53.6,508.7,53.6s42-5.8,82.6-29c0,0-17.4,56.5-55.1,66.7,0,0,31.9,0,71-17.4,0,0-31.9,56.5-65.2,65.2,0,0,8.7,149.3-78.3,242S246.4,576.8,0,453.6Z"/></svg>